<svg width="18" height="17" viewBox="0 0 18 17" fill="none" xmlns="http://www.w3.org/2000/svg">
<path d="M9.35965 9.5625C11.9835 9.5625 14.1124 7.4209 14.1124 4.78125C14.1124 2.1416 11.9835 0 9.35965 0C6.73576 0 4.60695 2.1416 4.60695 4.78125C4.60695 7.4209 6.73576 9.5625 9.35965 9.5625ZM13.5843 10.625H11.7657C11.033 10.9637 10.2178 11.1562 9.35965 11.1562C8.50153 11.1562 7.68961 10.9637 6.9536 10.625H5.13503C2.80158 10.625 0.9104 12.5275 0.9104 14.875V15.4062C0.9104 16.2861 1.62001 17 2.49464 17H16.2247C17.0993 17 17.8089 16.2861 17.8089 15.4062V14.875C17.8089 12.5275 15.9177 10.625 13.5843 10.625Z" fill="#ED6B00"/>
</svg>
