<svg width="22" height="18" viewBox="0 0 22 18" fill="none" xmlns="http://www.w3.org/2000/svg">
<path d="M19.25 4.95005V7.15005H20.35V10.45H19.25V12.65H1.65V4.95005H19.25ZM19.25 3.30005H1.65C0.738719 3.30005 0 4.03877 0 4.95005V12.65C0 13.5613 0.738719 14.3 1.65 14.3H19.25C20.1613 14.3 20.9 13.5613 20.9 12.65V12.1H21.175C21.6306 12.1 22 11.7307 22 11.275V6.32505C22 5.86941 21.6306 5.50005 21.175 5.50005H20.9V4.95005C20.9 4.03877 20.1613 3.30005 19.25 3.30005ZM17.6 6.60005H3.3V11H17.6V6.60005Z" fill="#7DBC57"/>
</svg>
