<svg width="18" height="13" viewBox="0 0 18 13" fill="none" xmlns="http://www.w3.org/2000/svg">
<path d="M4.95 7.2C6.19031 7.2 7.2 6.19031 7.2 4.95C7.2 3.70969 6.19031 2.7 4.95 2.7C3.70969 2.7 2.7 3.70969 2.7 4.95C2.7 6.19031 3.70969 7.2 4.95 7.2ZM15.3 2.7H8.55C8.3025 2.7 8.1 2.9025 8.1 3.15V8.1H1.8V0.45C1.8 0.201375 1.59862 0 1.35 0H0.45C0.201459 0 0 0.201375 0 0.45V12.15C0 12.3975 0.201459 12.6 0.45 12.6H1.35C1.59862 12.6 1.8 12.3975 1.8 12.15V10.8H16.2V12.15C16.2 12.3985 16.4015 12.6 16.65 12.6H17.55C17.7985 12.6 18 12.3985 18 12.15V5.4C18 3.88406 16.7906 2.7 15.3 2.7Z" fill="#DADADA"/>
</svg>
