<svg width="24" height="24" viewBox="0 0 24 24" fill="none" xmlns="http://www.w3.org/2000/svg">
<path d="M11.9746 9.24994C12.727 10.0023 12.727 11.2222 11.9746 11.9745C11.2222 12.7269 10.0024 12.7269 9.24997 11.9745C8.49759 11.2222 8.49759 10.0023 9.24997 9.24994C10.0024 8.49756 11.2222 8.49756 11.9746 9.24994Z" fill="#A6A6A6"/>
<path fill-rule="evenodd" clip-rule="evenodd" d="M12.0527 0.341256C11.2159 0.184884 10.3184 0.253871 8.85669 0.366221L8.54552 0.39009C6.61743 0.537723 5.43711 0.628099 4.45244 1.04934C2.92261 1.7038 1.7038 2.92261 1.04934 4.45244C0.628099 5.43711 0.537723 6.61742 0.390091 8.54552L0.366221 8.85669C0.253871 10.3184 0.184884 11.2159 0.341256 12.0527C0.58394 13.3514 1.21846 14.5446 2.15949 15.472C2.76584 16.0695 3.54854 16.5141 4.8232 17.2382L7.15361 18.5625C8.27404 19.1993 8.96021 19.5893 9.65628 19.7995C10.4159 20.0288 11.2018 20.1139 11.9759 20.0599L13.3422 21.4262C15.5745 23.6585 19.1938 23.6585 21.4261 21.4261C23.6584 19.1938 23.6584 15.5745 21.4261 13.3422L20.0599 11.976C20.1139 11.2019 20.0288 10.4159 19.7995 9.65628C19.5893 8.96021 19.1993 8.27405 18.5625 7.15362L17.2382 4.82319C16.5141 3.54853 16.0695 2.76584 15.472 2.15949C14.5446 1.21846 13.3514 0.58394 12.0527 0.341256ZM8.85396 2.0589C10.4895 1.93341 11.1512 1.8895 11.7427 2.00004C12.7026 2.17942 13.5846 2.64841 14.27 3.34396C14.6924 3.77258 15.026 4.34575 15.8364 5.77188L17.0368 7.88445C17.7504 9.14021 18.0356 9.65239 18.184 10.144C18.3848 10.8092 18.436 11.5017 18.3439 12.1747C18.2525 12.8421 18.0201 13.4901 17.653 14.0732C17.3794 14.5078 16.9685 14.9259 15.9472 15.9472C14.9259 16.9685 14.5078 17.3794 14.0732 17.653C13.4901 18.0201 12.842 18.2525 12.1746 18.3439C11.5016 18.436 10.8092 18.3848 10.144 18.184C9.65239 18.0356 9.14021 17.7504 7.88445 17.0368L5.77188 15.8364C4.34575 15.026 3.77258 14.6924 3.34396 14.27C2.64841 13.5846 2.17942 12.7026 2.00004 11.7427C1.8895 11.1512 1.93341 10.4895 2.0589 8.85396C2.22506 6.68864 2.30351 5.81117 2.60083 5.11617C2.72961 4.81514 2.88795 4.5304 3.07233 4.26548L8.65336 9.84651C8.98286 10.176 9.5171 10.176 9.8466 9.84651C10.1761 9.51701 10.1761 8.98278 9.8466 8.65327L4.26559 3.07226C4.53047 2.88791 4.81517 2.72959 5.11617 2.60083C5.81117 2.30351 6.68864 2.22506 8.85396 2.0589ZM14.5354 20.2329L13.9191 19.6166C14.283 19.4717 14.6356 19.293 14.9723 19.0811C15.5876 18.6937 16.1456 18.1355 17.0568 17.2241L17.2241 17.0568C18.1355 16.1456 18.6937 15.5876 19.0811 14.9723C19.293 14.6356 19.4717 14.283 19.6166 13.9192L20.2329 14.5355C21.8062 16.1088 21.8062 18.6596 20.2329 20.2329C18.6596 21.8062 16.1087 21.8062 14.5354 20.2329Z" fill="#A6A6A6"/>
</svg>
