<svg width="30" height="24" viewBox="0 0 30 24" fill="none" xmlns="http://www.w3.org/2000/svg">
<path d="M29.8163 18.2874C28.8005 14.4767 27.1895 10.8276 25.0348 7.45887C23.9979 5.83848 23.3441 4.49979 21.2826 4.49979C19.4691 4.49979 17.9992 5.87879 17.9992 7.5798V10.3973L16.458 9.36987C16.3553 9.30138 16.2711 9.20861 16.2129 9.09978C16.1547 8.99094 16.1242 8.86942 16.1242 8.746V0.749965C16.1242 0.335609 15.7886 0 15.3743 0H14.6243C14.21 0 13.8743 0.335609 13.8743 0.749965V8.746C13.8743 8.99677 13.7492 9.23066 13.5406 9.36987L11.9994 10.3973V7.5798C11.9994 5.87879 10.5295 4.49979 8.716 4.49979C6.65453 4.49979 6.00066 5.83848 4.96383 7.45887C2.80909 10.8276 1.19807 14.4767 0.182335 18.2874C0.0609347 18.7416 0 19.208 0 19.6763C0 22.1291 2.13881 23.9989 4.59682 23.9989C5.44474 23.9989 5.74286 23.8643 8.65975 23.0825C10.6368 22.5528 11.9999 20.8575 11.9999 18.9286V14.8277L9.75001 16.3277V18.9286C9.75001 19.8309 9.06239 20.6451 8.07759 20.909C5.04867 21.7209 5.05664 21.749 4.59682 21.749C3.1761 21.749 1.88241 20.6442 2.35676 18.8668C3.31297 15.2773 4.8279 11.8466 6.8589 8.67147C7.93885 6.96483 8.04665 6.74968 8.716 6.74968C9.27613 6.74968 9.74954 7.12982 9.74954 7.5798V11.8973L5.99972 14.397C5.6552 14.6267 5.56193 15.0921 5.7916 15.4371L6.20783 16.061C6.43751 16.4055 6.90343 16.4988 7.24794 16.2691L14.9993 11.1014L22.7511 16.2691C23.0956 16.4988 23.5616 16.4055 23.7912 16.061L24.2075 15.4371C24.4371 15.0926 24.3439 14.6267 23.9993 14.397L20.2495 11.8973V7.5798C20.2495 7.12982 20.7229 6.74968 21.2831 6.74968C21.9524 6.74968 22.0597 6.96483 23.1402 8.67147C25.1712 11.8466 26.6861 15.2773 27.6428 18.8668C28.1171 20.6442 26.8234 21.749 25.4027 21.749C24.9429 21.749 24.9509 21.7209 21.9224 20.9095C20.9376 20.6456 20.25 19.8309 20.25 18.9291V16.3281L18.0001 14.8282V18.9291C18.0001 20.8579 19.3632 22.5528 21.3403 23.083C24.2567 23.8648 24.5553 23.9993 25.4032 23.9993C27.8612 23.9993 30 22.1296 30 19.6767C29.9986 19.208 29.9377 18.7416 29.8163 18.2874Z" fill="#4E4E4E"/>
</svg>
