<svg width="18" height="21" viewBox="0 0 18 21" fill="none" xmlns="http://www.w3.org/2000/svg">

<clipPath id="clip0_172_34">
<rect width="18" height="20.5714" fill="white"/>
</clipPath>
    <g clip-path="url(#clip0_172_34)">
        <path d="M6.10714 2.57143H11.8929V0.964286C11.8929 0.43192 12.3228 0 12.8571 0C13.3915 0 13.8214 0.43192 13.8214 0.964286V2.57143H15.4286C16.8469 2.57143 18 3.72254 18 5.14286V18C18 19.4183 16.8469 20.5714 15.4286 20.5714H2.57143C1.15112 20.5714 0 19.4183 0 18V5.14286C0 3.72254 1.15112 2.57143 2.57143 2.57143H4.17857V0.964286C4.17857 0.43192 4.60848 0 5.14286 0C5.67723 0 6.10714 0.43192 6.10714 0.964286V2.57143ZM1.92857 18C1.92857 18.3536 2.21625 18.6429 2.57143 18.6429H15.4286C15.7821 18.6429 16.0714 18.3536 16.0714 18V7.71429H1.92857V18Z" fill="#00858F"/>
    </g>
    <defs>
</defs>
</svg>
