<svg width="18" height="17" viewBox="0 0 18 17" fill="none" xmlns="http://www.w3.org/2000/svg">
<path d="M9.36576 0C4.69935 0 0.916504 3.80557 0.916504 8.5C0.916504 13.1944 4.69935 17 9.36576 17C14.0322 17 17.815 13.1944 17.815 8.5C17.815 3.80557 14.0322 0 9.36576 0ZM9.36576 15.3548C5.59998 15.3548 2.55184 12.289 2.55184 8.5C2.55184 4.71164 5.5994 1.64516 9.36576 1.64516C13.1315 1.64516 16.1797 4.71102 16.1797 8.5C16.1797 12.2884 13.1321 15.3548 9.36576 15.3548ZM13.0232 11.891C12.6956 12.2238 11.472 13.3098 9.47771 13.3098C6.66936 13.3098 4.69148 11.2045 4.69148 8.45767C4.69148 5.7448 6.74502 3.67981 9.45311 3.67981C11.345 3.67981 12.4764 4.59219 12.7781 4.87184C12.849 4.93743 12.8945 5.02615 12.9065 5.12227C12.9186 5.2184 12.8965 5.31572 12.844 5.39699L12.2255 6.36054C12.0946 6.56447 11.8178 6.61012 11.6293 6.46065C11.3365 6.22841 10.5454 5.68818 9.52694 5.68818C7.88128 5.68818 6.87238 6.89909 6.87238 8.43293C6.87238 9.85836 7.78844 11.3014 9.53924 11.3014C10.6519 11.3014 11.4759 10.6489 11.7785 10.3683C11.958 10.2018 12.2417 10.2299 12.3856 10.4279L13.0624 11.3591C13.1201 11.4378 13.1479 11.5348 13.1407 11.6323C13.1335 11.7299 13.0918 11.8216 13.0232 11.891Z" fill="#ED6B00"/>
</svg>
