<svg width="18" height="16" viewBox="0 0 18 16" fill="none" xmlns="http://www.w3.org/2000/svg">
<path d="M17.7992 13.75L10.3061 0.75C10.018 0.25 9.51212 0 9.00626 0C8.50039 0 7.99453 0.25 7.67485 0.75L0.185224 13.75C-0.358933 14.7464 0.35915 16 1.51453 16H16.5008C17.6516 16 18.3718 14.75 17.7992 13.75ZM1.8602 14.2857L8.97464 1.88571L16.1516 14.2857H1.8602ZM9.00626 10.8964C8.39641 10.8964 7.90178 11.3993 7.90178 12.0193C7.90178 12.6393 8.39746 13.1421 9.00766 13.1421C9.61786 13.1421 10.1107 12.6393 10.1107 12.0193C10.1093 11.4 9.61751 10.8964 9.00626 10.8964ZM8.16315 5.42857V8.85714C8.16315 9.33214 8.54255 9.71429 9.00626 9.71429C9.46997 9.71429 9.84937 9.33036 9.84937 8.85714V5.42857C9.84937 4.95714 9.47348 4.57143 9.00626 4.57143C8.53904 4.57143 8.16315 4.95714 8.16315 5.42857Z" fill="white"/>
</svg>
