<svg width="17" height="19" viewBox="0 0 17 19" fill="none" xmlns="http://www.w3.org/2000/svg">
<path d="M15.1108 8H14.2588V5.42857C14.2588 2.43571 11.8376 0 8.86264 0C5.88765 0 3.46648 2.43571 3.46648 5.42857V8H2.61445C1.67367 8 0.9104 8.76786 0.9104 9.71429V16.5714C0.9104 17.5179 1.67367 18.2857 2.61445 18.2857H15.1108C16.0516 18.2857 16.8149 17.5179 16.8149 16.5714V9.71429C16.8149 8.76786 16.0516 8 15.1108 8ZM11.4187 8H6.30656V5.42857C6.30656 4.01071 7.45325 2.85714 8.86264 2.85714C10.272 2.85714 11.4187 4.01071 11.4187 5.42857V8Z" fill="#ED6B00"/>
</svg>
