<svg width="16" height="12" viewBox="0 0 16 12" fill="none" xmlns="http://www.w3.org/2000/svg">
<path d="M16 0.999882V10.9999C16 11.5674 15.5675 11.9999 15 11.9999H14V2.92438L8 7.23438L2 2.92438V11.9999H1C0.4325 11.9999 0 11.5674 0 10.9999V0.999882C0 0.715882 0.107 0.465882 0.2865 0.288882C0.379986 0.195345 0.491325 0.12156 0.613897 0.0719131C0.736469 0.0222659 0.867772 -0.00223006 1 -0.000118353H1.3335L8 4.83338L14.6665 -0.000118353H15C15.284 -0.000118353 15.534 0.106882 15.7135 0.288882C15.893 0.465882 16 0.715882 16 0.999882Z" fill="white"/>
</svg>
