<svg width="27" height="26" viewBox="0 0 27 26" fill="none" xmlns="http://www.w3.org/2000/svg">
<path fill-rule="evenodd" clip-rule="evenodd" d="M13.7373 0.410598C13.5793 0.404801 13.4211 0.404801 13.263 0.410598C12.2197 0.448872 11.2803 0.803639 10.2502 1.3942C9.24643 1.9697 8.09078 2.80934 6.62448 3.87468L6.54477 3.93259C5.07845 4.99792 3.92279 5.83755 3.06525 6.61439C2.18529 7.41154 1.55758 8.19539 1.19878 9.1758C1.14443 9.32432 1.09554 9.47478 1.05222 9.62688C0.766221 10.6309 0.813317 11.634 1.05667 12.7962C1.29381 13.9287 1.73524 15.2872 2.29533 17.011L2.32578 17.1047C2.88585 18.8284 3.32727 20.187 3.80108 21.2426C4.2873 22.3259 4.83881 23.1651 5.66036 23.8093C5.78481 23.9069 5.9128 23.9998 6.04407 24.088C6.87061 24.6434 7.79005 24.9105 8.89872 25.0448C10.0781 25.1876 11.5527 25.1876 13.4437 25.1876H13.5567C15.4477 25.1876 16.9223 25.1876 18.1017 25.0448C19.2103 24.9105 20.1298 24.6434 20.9563 24.088C21.0876 23.9998 21.2156 23.9069 21.34 23.8093C22.1616 23.1651 22.7131 22.3259 23.1993 21.2426C23.6731 20.187 24.1145 18.8284 24.6746 17.1047L24.7051 17.0109C25.2651 15.2873 25.7066 13.9287 25.9437 12.7962C26.1871 11.634 26.2342 10.6309 25.9482 9.62688C25.9048 9.47478 25.856 9.32432 25.8016 9.1758C25.4428 8.19539 24.8151 7.41154 23.9351 6.61439C23.0776 5.83755 21.9219 4.99792 20.4556 3.93258L20.3759 3.87466C18.9096 2.80933 17.7539 1.9697 16.7502 1.3942C15.7201 0.803639 14.7806 0.448872 13.7373 0.410598ZM13.3249 2.09696C13.4417 2.09268 13.5587 2.09268 13.6755 2.09696C14.3453 2.12154 15.0125 2.34313 15.9108 2.85816C16.8263 3.38303 17.909 4.16821 19.4239 5.26886C20.9388 6.36951 22.0201 7.15654 22.8022 7.86503C23.5696 8.56022 23.9865 9.12626 24.2169 9.75575C24.2571 9.86552 24.2932 9.97673 24.3252 10.0892C24.5088 10.7338 24.5043 11.4368 24.292 12.4503C24.0758 13.4832 23.6636 14.7555 23.0849 16.5364C22.5063 18.3173 22.0919 19.5889 21.6598 20.5516C21.2357 21.4963 20.8262 22.0677 20.2988 22.4813C20.2068 22.5535 20.1122 22.6222 20.0151 22.6874C19.6827 22.9108 19.3096 23.0767 18.8439 23.1977V20.1721C18.8439 17.2208 16.4515 14.8284 13.5002 14.8284C10.5489 14.8284 8.15644 17.2208 8.15644 20.1721V23.1977C7.69073 23.0767 7.31772 22.9108 6.98524 22.6874C6.88821 22.6222 6.79361 22.5535 6.70163 22.4813C6.17414 22.0677 5.76464 21.4963 5.34061 20.5516C4.90847 19.5889 4.49411 18.3173 3.91546 16.5364C3.33682 14.7555 2.92463 13.4832 2.70834 12.4503C2.49612 11.4368 2.49154 10.7338 2.67516 10.0892C2.70719 9.97673 2.74332 9.86552 2.78349 9.75575C3.01387 9.12626 3.43078 8.56022 4.1982 7.86503C4.98028 7.15654 6.06158 6.36951 7.5765 5.26886C9.09142 4.16821 10.1741 3.38303 11.0896 2.85816C11.9879 2.34313 12.655 2.12154 13.3249 2.09696ZM13.5002 16.5159C15.5195 16.5159 17.1564 18.1528 17.1564 20.1721V23.437C16.2076 23.4992 15.0339 23.5001 13.5002 23.5001C11.9665 23.5001 10.7928 23.4992 9.84394 23.437V20.1721C9.84394 18.1528 11.4809 16.5159 13.5002 16.5159Z" fill="#A6A6A6"/>
</svg>
