<svg width="18" height="17" viewBox="0 0 18 17" fill="none" xmlns="http://www.w3.org/2000/svg">
<path d="M9.36576 0C4.69969 0 0.916504 3.80728 0.916504 8.5C0.916504 13.1955 4.69969 17 9.36576 17C14.0318 17 17.815 13.1955 17.815 8.5C17.815 3.80728 14.0318 0 9.36576 0ZM9.36576 3.77016C10.156 3.77016 10.7967 4.41465 10.7967 5.20968C10.7967 6.0047 10.156 6.64919 9.36576 6.64919C8.57548 6.64919 7.93484 6.0047 7.93484 5.20968C7.93484 4.41465 8.57548 3.77016 9.36576 3.77016ZM11.2737 12.4758C11.2737 12.7029 11.0906 12.8871 10.8648 12.8871H7.8667C7.64092 12.8871 7.45786 12.7029 7.45786 12.4758V11.6532C7.45786 11.4261 7.64092 11.2419 7.8667 11.2419H8.27553V9.04839H7.8667C7.64092 9.04839 7.45786 8.86423 7.45786 8.6371V7.81452C7.45786 7.58738 7.64092 7.40323 7.8667 7.40323H10.0471C10.2729 7.40323 10.456 7.58738 10.456 7.81452V11.2419H10.8648C11.0906 11.2419 11.2737 11.4261 11.2737 11.6532V12.4758Z" fill="#ED6B00"/>
</svg>
