<svg width="18" height="17" viewBox="0 0 18 17" fill="none" xmlns="http://www.w3.org/2000/svg">
<path d="M9.36576 17C4.69823 17 0.916504 13.1956 0.916504 8.5C0.916504 3.80443 4.69823 0 9.36576 0C14.0333 0 17.815 3.80443 17.815 8.5C17.815 13.1956 14.0333 17 9.36576 17ZM15.4744 11.5161H13.185C12.9567 12.7671 12.5887 13.8742 12.122 14.7619C13.5836 14.1107 14.7692 12.9556 15.4744 11.5161ZM9.36576 15.3548C9.99945 15.3548 11.0215 13.9427 11.519 11.5161H7.21256C7.70998 13.9427 8.73206 15.3548 9.36576 15.3548ZM2.55184 8.5C2.55184 8.96956 2.59954 9.42883 2.68812 9.87097H5.33533C5.30126 9.42198 5.27741 8.96956 5.27741 8.5C5.27741 8.03044 5.30126 7.57802 5.33533 7.12903H2.68812C2.59954 7.57117 2.55184 8.03044 2.55184 8.5ZM3.25708 5.48387H5.54656C5.77482 4.23286 6.14278 3.12581 6.60953 2.2381C5.14794 2.88931 3.96232 4.04435 3.25708 5.48387ZM5.54656 11.5161H3.25708C3.96232 12.9556 5.14794 14.1107 6.60953 14.7619C6.14278 13.8742 5.77482 12.7671 5.54656 11.5161ZM9.36576 1.64516C8.73206 1.64516 7.70998 3.05726 7.21256 5.48387H11.5224C11.0215 3.05726 9.99945 1.64516 9.36576 1.64516ZM11.754 7.12903H6.97748C6.94 7.56774 6.91275 8.02016 6.91275 8.5C6.91275 8.97984 6.94 9.43226 6.97748 9.87097H11.7574C11.7949 9.43226 11.8222 8.97984 11.8222 8.5C11.8222 8.02016 11.7915 7.56774 11.754 7.12903ZM12.122 2.2381C12.5887 3.12581 12.9533 4.23286 13.185 5.48387H15.4744C14.7692 4.04435 13.5836 2.88931 12.122 2.2381ZM13.3962 7.12903C13.4303 7.57802 13.4541 8.03044 13.4541 8.5C13.4541 8.96956 13.4303 9.42198 13.3962 9.87097H16.0434C16.132 9.42883 16.1797 8.96956 16.1797 8.5C16.1797 8.03044 16.132 7.57117 16.0434 7.12903H13.3962Z" fill="#ED6B00"/>
</svg>
