<svg width="18" height="18" viewBox="0 0 18 18" fill="none" xmlns="http://www.w3.org/2000/svg">
<path d="M9.62508 0.666748C9.62508 0.32157 9.34526 0.041748 9.00008 0.041748C8.6549 0.041748 8.37508 0.32157 8.37508 0.666748V6.50008C8.37508 6.84526 8.6549 7.12508 9.00008 7.12508C9.34526 7.12508 9.62508 6.84526 9.62508 6.50008V0.666748Z" fill="#211E1E"/>
<path d="M4.37546 2.83313C4.65145 2.62581 4.70711 2.23402 4.49979 1.95803C4.29248 1.68205 3.90068 1.62638 3.6247 1.8337C1.45047 3.46698 0.041748 6.0689 0.041748 9.00008C0.041748 13.9476 4.05253 17.9584 9.00008 17.9584C13.9476 17.9584 17.9584 13.9476 17.9584 9.00008C17.9584 6.09069 16.5149 3.46925 14.3797 1.83689C14.1054 1.62725 13.7132 1.6796 13.5036 1.95383C13.2939 2.22805 13.3463 2.6203 13.6205 2.82994C15.469 4.24309 16.7084 6.50769 16.7084 9.00008C16.7084 13.2573 13.2573 16.7084 9.00008 16.7084C4.74289 16.7084 1.29175 13.2573 1.29175 9.00008C1.29175 6.4788 2.50187 4.24057 4.37546 2.83313Z" fill="#211E1E"/>
</svg>
