<svg width="24" height="24" viewBox="0 0 24 24" fill="none" xmlns="http://www.w3.org/2000/svg">
<g clip-path="url(#clip0_101_2)">
<path fill-rule="evenodd" clip-rule="evenodd" d="M3.78178 8.49116C4.14459 6.58563 5.06306 4.76429 6.53561 3.28989C10.4449 -0.6243 16.7835 -0.6243 20.6927 3.28989C21.8853 4.48394 22.9385 6.25142 23.3991 8.21371C23.8624 10.1879 23.734 12.4054 22.4824 14.4219C22.4183 14.5252 22.3787 14.5892 22.3507 14.637C22.3378 14.6591 22.331 14.6717 22.3281 14.6771C22.3255 14.684 22.3239 14.6888 22.3229 14.6918C22.323 14.6954 22.3231 14.7014 22.3237 14.7107C22.3245 14.7149 22.3263 14.7243 22.3299 14.7404C22.3392 14.7814 22.3533 14.8362 22.3783 14.9331L22.3856 14.9612C22.5294 15.5165 22.6475 15.9729 22.717 16.3416C22.7869 16.7128 22.8273 17.0875 22.753 17.4533C22.5409 18.4965 21.7264 19.3126 20.6832 19.5251C20.3173 19.5997 19.9426 19.5591 19.5718 19.4891C19.2034 19.4195 18.7475 19.3012 18.193 19.1573L18.1649 19.15C18.0681 19.1249 18.0134 19.1108 17.9725 19.1015C17.9565 19.0979 17.9472 19.0961 17.9429 19.0953C17.9344 19.0948 17.9286 19.0946 17.925 19.0946C17.922 19.0955 17.9175 19.0971 17.9112 19.0994C17.9057 19.1023 17.893 19.1092 17.8708 19.1221C17.8226 19.1503 17.7581 19.1901 17.6543 19.2543C16.9827 19.6699 16.2837 19.9603 15.5756 20.1442C15.3129 20.5101 15.0175 20.8593 14.6896 21.1877C13.7234 22.1551 12.2476 23.0331 10.6038 23.4268C8.94854 23.8233 7.06266 23.7402 5.35619 22.6843C5.27344 22.6331 5.22288 22.6019 5.18559 22.58C5.15584 22.5871 5.11493 22.5977 5.04713 22.6153L5.0198 22.6224C4.56672 22.74 4.18726 22.8384 3.87907 22.8966C3.56849 22.9553 3.23774 22.993 2.90855 22.9259C1.99298 22.7393 1.27826 22.0231 1.0922 21.1078C1.02532 20.7787 1.06289 20.448 1.12144 20.1372C1.17954 19.8287 1.27787 19.4489 1.39532 18.9952L1.4024 18.9678C1.42017 18.8992 1.43074 18.8581 1.43782 18.8282C1.41604 18.7912 1.38496 18.741 1.3337 18.6584C0.27887 16.9589 0.172639 15.092 0.561026 13.4374C0.946624 11.7946 1.82756 10.3155 2.8279 9.3139C3.12931 9.0121 3.44833 8.73781 3.78178 8.49116ZM7.68538 4.43822C10.9599 1.15959 16.2685 1.15959 19.543 4.43822C20.5288 5.42527 21.4277 6.9261 21.8171 8.58505C22.2037 10.2321 22.0801 11.9887 21.1017 13.565C21.0925 13.5799 21.0831 13.595 21.0736 13.6102C20.9803 13.7599 20.8799 13.9211 20.8216 14.0676C20.7183 14.3273 20.6825 14.5624 20.7039 14.8411C20.7159 14.9977 20.758 15.1592 20.795 15.3011C20.7984 15.3143 20.8019 15.3274 20.8052 15.3403C20.958 15.9307 21.0619 16.3338 21.12 16.6424C21.1788 16.9547 21.171 17.0782 21.1605 17.1296C21.0782 17.5348 20.7621 17.8507 20.3588 17.9328C20.308 17.9432 20.1851 17.9512 19.8733 17.8923C19.5653 17.8342 19.1627 17.7301 18.5731 17.5771C18.5602 17.5738 18.5471 17.5703 18.5338 17.5669C18.3923 17.5299 18.231 17.4877 18.0748 17.4756C17.7963 17.4541 17.5627 17.4894 17.3031 17.5924C17.157 17.6503 16.9952 17.7508 16.8448 17.8442C16.8295 17.8537 16.8143 17.8632 16.7992 17.8725C16.7696 17.8908 16.7399 17.9088 16.7102 17.9265C17.6898 15.0016 17.0169 11.6441 14.6896 9.3139C12.2777 6.89898 8.76322 6.26262 5.76955 7.40367C6.17723 6.32265 6.81565 5.30904 7.68538 4.43822ZM4.98044 9.63323C7.60978 7.85506 11.2126 8.13203 13.5398 10.4622C15.848 12.7732 16.1397 16.3413 14.412 18.969C14.1635 19.3469 13.8729 19.7059 13.5398 20.0393C12.7854 20.7947 11.5764 21.5229 10.2253 21.8465C8.88553 22.1674 7.46623 22.079 6.21122 21.3025C6.19877 21.2948 6.18599 21.2868 6.17292 21.2787C6.05208 21.2036 5.90686 21.1133 5.77365 21.0604C5.53957 20.9676 5.32537 20.9352 5.07428 20.9546C4.93192 20.9657 4.78609 21.0039 4.67207 21.0337C4.6607 21.0367 4.64964 21.0396 4.63894 21.0424C4.15139 21.1689 3.82537 21.2531 3.57758 21.2998C3.32602 21.3473 3.247 21.3365 3.23301 21.3336C2.9573 21.2774 2.74102 21.0615 2.68464 20.7841C2.68167 20.7695 2.67091 20.6899 2.71837 20.4379C2.76512 20.1897 2.84919 19.8632 2.97555 19.375C2.97832 19.3643 2.98121 19.3533 2.98418 19.3419C3.01405 19.2276 3.05219 19.0816 3.06312 18.9389C3.08238 18.6876 3.04959 18.4722 2.95643 18.238C2.90334 18.1045 2.81305 17.9597 2.73804 17.8395C2.72996 17.8265 2.72204 17.8138 2.71438 17.8015C1.93279 16.5422 1.83142 15.1362 2.14303 13.8087C2.45743 12.4693 3.18407 11.2568 3.97767 10.4622C4.29124 10.1483 4.62732 9.87204 4.98044 9.63323Z" fill="#000000"/>
<path d="M10.9166 15.2501C10.9166 15.8484 11.4016 16.3334 11.9999 16.3334C12.5982 16.3334 13.0832 15.8484 13.0832 15.2501C13.0832 14.6518 12.5982 14.1667 11.9999 14.1667C11.4016 14.1667 10.9166 14.6518 10.9166 15.2501Z" fill="#000000"/>
<path d="M7.66658 15.2501C7.66658 15.8484 8.15161 16.3334 8.74991 16.3334C9.34822 16.3334 9.83325 15.8484 9.83325 15.2501C9.83325 14.6518 9.34822 14.1667 8.74991 14.1667C8.15161 14.1667 7.66658 14.6518 7.66658 15.2501Z" fill="#000000"/>
<path d="M4.41658 15.2501C4.41658 15.8484 4.90161 16.3334 5.49991 16.3334C6.09822 16.3334 6.58325 15.8484 6.58325 15.2501C6.58325 14.6518 6.09822 14.1667 5.49991 14.1667C4.90161 14.1667 4.41658 14.6518 4.41658 15.2501Z" fill="#000000"/>
<circle cx="19.5" cy="3.5" r="3.5" fill="#2AAF6F"/>
</g>
<defs>
<clipPath id="clip0_101_2">
<rect width="24" height="24" fill="white"/>
</clipPath>
</defs>
</svg>
