<svg width="144" height="115" viewBox="0 0 144 115" fill="none" xmlns="http://www.w3.org/2000/svg">
<path d="M79.2 7.1875V11.2035C95.5125 13.7888 108 27.8965 108 44.9219V52.4238C108 62.6211 111.487 72.5264 117.855 80.5L121.207 84.6777C122.512 86.2949 122.76 88.5186 121.86 90.3828C120.96 92.2471 119.07 93.4375 117 93.4375H27C24.93 93.4375 23.04 92.2471 22.1332 90.3828C21.2332 88.5186 21.4875 86.2949 22.7925 84.6777L26.145 80.5C32.5125 72.5264 36 62.6211 36 52.4238V44.9219C36 27.8965 48.4875 13.7888 64.8 11.2035V7.1875C64.8 3.21865 68.0175 0 72 0C75.9825 0 79.2 3.21865 79.2 7.1875ZM70.2 21.5625C57.285 21.5625 46.8 32.0293 46.8 44.9219V52.4238C46.8 63.1826 43.6725 73.6719 37.8675 82.6562H106.132C100.327 73.6719 97.2 63.1826 97.2 52.4238V44.9219C97.2 32.0293 86.715 21.5625 73.8 21.5625H70.2ZM86.4 100.625C86.4 104.241 84.8925 108.104 82.1925 110.8C79.4925 113.495 75.6225 115 72 115C68.175 115 64.5075 113.495 61.8075 110.8C59.1075 108.104 57.6 104.241 57.6 100.625H86.4ZM0 44.9219C0 41.9346 2.41875 39.5312 5.4 39.5312H23.4C26.3925 39.5312 28.8 41.9346 28.8 44.9219C28.8 47.9092 26.3925 50.3125 23.4 50.3125H5.4C2.41875 50.3125 0 47.9092 0 44.9219ZM138.6 39.5312C141.592 39.5312 144 41.9346 144 44.9219C144 47.9092 141.592 50.3125 138.6 50.3125H120.6C117.607 50.3125 115.2 47.9092 115.2 44.9219C115.2 41.9346 117.607 39.5312 120.6 39.5312H138.6ZM134.438 4.77744C135.765 7.43906 134.685 10.6779 132.007 12.0099L117.607 19.1974C114.952 20.5271 111.712 19.4489 110.362 16.7851C109.035 14.1234 110.115 10.8846 112.792 9.55264L127.192 2.36514C129.847 1.03455 133.087 2.11402 134.438 4.77744ZM11.9858 12.0099C9.31725 10.6779 8.23725 7.43906 9.56925 4.77744C10.9035 2.11402 14.148 1.03455 16.8143 2.36514L31.2075 9.55264C33.885 10.8846 34.965 14.1234 33.6375 16.7851C32.2875 19.4489 29.0475 20.5271 26.3925 19.1974L11.9858 12.0099Z" fill="#ED6B00" fill-opacity="0.61"/>
</svg>
