<svg width="395" height="471" viewBox="0 0 395 471" fill="none" xmlns="http://www.w3.org/2000/svg">
<g clip-path="url(#clip0_1016_193)">
<path d="M180 470.34C279.26 470.34 360 389.58 360 290.34C360 249.34 331 188.41 273.87 109.41C232.11 51.62 189.71 4.59 189.29 4.12C188.118 2.82288 186.687 1.78601 185.089 1.07634C183.492 0.366675 181.763 0 180.015 0C178.267 0 176.538 0.366675 174.941 1.07634C173.343 1.78601 171.912 2.82288 170.74 4.12C170.32 4.59 127.92 51.62 86.13 109.39C29 188.39 0 249.27 0 290.32C0 389.58 80.75 470.34 180 470.34ZM106.26 124.22C135.68 83.54 165.41 48.27 180.02 31.42C194.6 48.24 224.24 83.42 253.65 124.04C306.89 197.64 335 255.14 335 290.32C335 375.8 265.46 445.32 180 445.32C94.54 445.32 25 375.8 25 290.32C25 255.17 53.1 197.74 106.26 124.22Z" fill="#010101"/>
<path d="M311.54 115.71C324.513 115.71 335.03 105.193 335.03 92.22C335.03 79.2468 324.513 68.73 311.54 68.73C298.567 68.73 288.05 79.2468 288.05 92.22C288.05 105.193 298.567 115.71 311.54 115.71Z" stroke="#231F20" stroke-width="5" stroke-miterlimit="10"/>
<path d="M375.79 104.45C384.494 104.45 391.55 97.3941 391.55 88.6901C391.55 79.986 384.494 72.9301 375.79 72.9301C367.086 72.9301 360.03 79.986 360.03 88.6901C360.03 97.3941 367.086 104.45 375.79 104.45Z" stroke="#231F20" stroke-width="5" stroke-miterlimit="10"/>
<path d="M348.96 53.22C356.648 53.22 362.88 46.9878 362.88 39.3C362.88 31.6122 356.648 25.38 348.96 25.38C341.272 25.38 335.04 31.6122 335.04 39.3C335.04 46.9878 341.272 53.22 348.96 53.22Z" stroke="#231F20" stroke-width="5" stroke-miterlimit="10"/>
<path d="M172.453 215.551C188.762 215.551 202.409 220.995 213.396 231.884C224.382 242.772 229.875 256.176 229.875 272.094C229.875 287.865 224.382 301.244 213.396 312.23C202.458 323.217 189.104 328.71 173.332 328.71C157.365 328.71 143.889 323.241 132.902 312.304C121.916 301.366 116.423 288.134 116.423 272.606C116.423 262.255 118.913 252.66 123.894 243.822C128.923 234.984 135.759 228.075 144.401 223.095C153.044 218.065 162.395 215.551 172.453 215.551ZM172.966 226.098C165.007 226.098 157.463 228.173 150.334 232.323C143.205 236.474 137.639 242.064 133.635 249.096C129.631 256.127 127.629 263.964 127.629 272.606C127.629 285.399 132.048 296.215 140.886 305.053C149.772 313.842 160.466 318.236 172.966 318.236C181.315 318.236 189.03 316.21 196.11 312.157C203.239 308.104 208.781 302.562 212.736 295.531C216.74 288.5 218.742 280.688 218.742 272.094C218.742 263.549 216.74 255.834 212.736 248.949C208.781 242.016 203.19 236.474 195.964 232.323C188.737 228.173 181.071 226.098 172.966 226.098Z" fill="#231F20"/>
<path d="M234.786 301.342H231.344C231.441 297.794 232.621 294.88 234.884 292.602C237.162 290.323 239.97 289.184 243.307 289.184C246.611 289.184 249.28 290.25 251.314 292.382C253.365 294.514 254.391 297.029 254.391 299.926C254.391 301.96 253.902 303.873 252.926 305.663C251.949 307.437 250.053 309.846 247.237 312.89L238.302 322.533H254.879V326H230.489L244.21 311.181C246.993 308.202 248.8 305.997 249.63 304.564C250.476 303.116 250.899 301.594 250.899 299.999C250.899 297.981 250.143 296.247 248.629 294.799C247.132 293.334 245.292 292.602 243.111 292.602C240.816 292.602 238.904 293.367 237.374 294.896C235.86 296.426 234.998 298.575 234.786 301.342Z" fill="black"/>
</g>
<defs>
<clipPath id="clip0_1016_193">
<rect width="394.05" height="470.34" fill="white"/>
</clipPath>
</defs>
</svg>
