<svg width="24" height="33" viewBox="0 0 24 33" fill="none" xmlns="http://www.w3.org/2000/svg">
<path d="M3.05232  22.789C1 21.9433 1.30522 20.7512 1.88073 19.3023C2.44709 17.8763 3.23794 16.2917 4.12581 14.6918C5.90066 11.4934 8.02267 8.30593 9.39548 6.32495C9.69657 5.89168 10.3034 5.89168 10.6045 6.32495C11.9773 8.30593 14.0993 11.4934 15.8742 14.6918C16.7621 16.2917 17.5529 17.8763 18.1193 19.3023C18.6948 20.7512 19 21.9433 19 22.789C19 27.8139 14.9671 31.8401 10 31.8401C5.03288 31.8401 1 27.8139 1 22.789Z" stroke="#4E4E4E" stroke-width="2"/>
<!--<path d="M2.49993 20.9999L4.4998 18.4999L8.49998 15.9999L16 22.4999L12.5 29.4999L11.5 30.4999L8.49998 29.4999L6.4998 28.4999L4.49994 26.9999L2.49993 22.9999L2.49993 20.9999Z" fill="white"/>-->
<path d="M7.29688 18.6367C8.38411 18.6367 9.29395 18.9997 10.0264 19.7256C10.7588 20.4515 11.125 21.3451 11.125 22.4062C11.125 23.4577 10.7588 24.3496 10.0264 25.082C9.2972 25.8145 8.4069 26.1807 7.35547 26.1807C6.29102 26.1807 5.39258 25.8161 4.66016 25.0869C3.92773 24.3577 3.56152 23.4756 3.56152 22.4404C3.56152 21.7503 3.72754 21.1107 4.05957 20.5215C4.39486 19.9323 4.85059 19.4717 5.42676 19.1396C6.00293 18.8044 6.6263 18.6367 7.29688 18.6367ZM7.33105 19.3398C6.80046 19.3398 6.29753 19.4782 5.82227 19.7549C5.34701 20.0316 4.97591 20.4043 4.70898 20.873C4.44206 21.3418 4.30859 21.8643 4.30859 22.4404C4.30859 23.2933 4.60319 24.0143 5.19238 24.6035C5.78483 25.1895 6.49772 25.4824 7.33105 25.4824C7.8877 25.4824 8.40202 25.3473 8.87402 25.0771C9.34928 24.807 9.71875 24.4375 9.98242 23.9688C10.2493 23.5 10.3828 22.9792 10.3828 22.4062C10.3828 21.8366 10.2493 21.3223 9.98242 20.8633C9.71875 20.401 9.34603 20.0316 8.86426 19.7549C8.38249 19.4782 7.87142 19.3398 7.33105 19.3398ZM12.8486 21.0684H12.1602C12.1797 20.3587 12.4157 19.776 12.8682 19.3203C13.3239 18.8646 13.8854 18.6367 14.5527 18.6367C15.2135 18.6367 15.7474 18.8499 16.1543 19.2764C16.5645 19.7028 16.7695 20.2057 16.7695 20.7852C16.7695 21.1921 16.6719 21.5745 16.4766 21.9326C16.2812 22.2874 15.902 22.7692 15.3389 23.3779L13.5518 25.3066H16.8672V26H11.9893L14.7334 23.0361C15.29 22.4404 15.6514 21.9993 15.8174 21.7129C15.9867 21.4232 16.0713 21.1188 16.0713 20.7998C16.0713 20.3962 15.9199 20.0495 15.6172 19.7598C15.3177 19.4668 14.9499 19.3203 14.5137 19.3203C14.0547 19.3203 13.6722 19.4733 13.3662 19.7793C13.0635 20.0853 12.891 20.515 12.8486 21.0684Z" fill="#1A1A18"/>
<circle cx="16.5" cy="6.5" r="2" fill="white" stroke="#4E4E4E"/>
<circle cx="19.5" cy="1.5" r="1" fill="white" stroke="#4E4E4E"/>
<circle cx="22" cy="6" r="1.5" fill="white" stroke="#4E4E4E"/>
</svg>
