<svg width="27" height="21" viewBox="0 0 27 21" fill="none" xmlns="http://www.w3.org/2000/svg">
<path fill-rule="evenodd" clip-rule="evenodd" d="M15.6201 0.656251C14.6093 0.656219 13.7664 0.656193 13.0973 0.746154C12.391 0.841109 11.7534 1.04999 11.241 1.56239C10.7286 2.0748 10.5197 2.71245 10.4247 3.41871C10.3758 3.78229 10.3535 4.19716 10.3433 4.66239C10.2187 4.21273 10.1009 3.8207 9.97361 3.48936C9.77452 2.97117 9.51992 2.51036 9.09369 2.15271C8.81723 1.92073 8.50232 1.73892 8.16319 1.61549C7.64034 1.42519 7.11397 1.4351 6.56566 1.52178C6.04223 1.60452 5.41227 1.77334 4.65726 1.97566L4.61398 1.98726C1.49653 2.82258 -0.353495 6.02692 0.481821 9.14436C0.723998 10.0482 1.46303 10.733 2.38264 10.9058L2.98036 11.0181C4.39202 11.2833 4.86921 13.0643 3.7793 13.9998L3.18872 14.5067C2.55761 15.0484 2.29308 15.9041 2.50834 16.7074C2.55628 16.8863 2.62699 17.0583 2.71876 17.2192L2.92953 17.5887C3.90116 19.2922 5.71162 20.3438 7.67267 20.3438L11.2502 20.3438L11.1786 20.3438H20.8036C24.031 20.3438 26.6473 17.7274 26.6473 14.5C26.6473 13.5643 26.1107 12.7115 25.2672 12.3066L24.7189 12.0434C23.424 11.4219 23.424 9.57813 24.7189 8.95657L25.2672 8.69339C26.1107 8.28849 26.6473 7.4357 26.6473 6.5C26.6473 3.27259 24.031 0.656254 20.8036 0.656254L15.6201 0.656251ZM12.0225 11.1634C12.0226 11.1727 12.0225 11.1819 12.0223 11.1912L12.0105 11.3158L12.0223 11.625C12.0223 12.091 11.6446 12.4688 11.1786 12.4688C10.7126 12.4688 10.3348 12.091 10.3348 11.625V11.279L9.43291 7.77695L8.91633 5.84907C8.69943 5.03957 8.55274 4.49637 8.39838 4.09458C8.24942 3.7069 8.12621 3.54377 8.00899 3.44541C7.88332 3.33997 7.74018 3.25732 7.58603 3.20122C7.44224 3.14888 7.23936 3.12374 6.82914 3.18858C6.404 3.25579 5.86023 3.40036 5.05073 3.61726C2.83352 4.21136 1.51772 6.49039 2.11182 8.70761C2.18603 8.98454 2.41247 9.19438 2.69425 9.24733L3.29197 9.35963C6.09505 9.88629 7.04261 13.4226 4.8784 15.2803L4.28782 15.7872C4.14916 15.9062 4.09105 16.0942 4.13834 16.2707C4.14887 16.31 4.16441 16.3478 4.18457 16.3831L4.39534 16.7526C5.0667 17.9296 6.31766 18.6563 7.67267 18.6563H20.8036C23.099 18.6563 24.9598 16.7954 24.9598 14.5C24.9598 14.2133 24.7954 13.952 24.5369 13.8279L23.9886 13.5648C21.4174 12.3305 21.4174 8.66946 23.9886 7.43525L24.5369 7.17207C24.7954 7.04801 24.9598 6.78671 24.9598 6.5C24.9598 4.20457 23.099 2.34375 20.8036 2.34375H15.6786C14.5941 2.34375 13.8656 2.34555 13.3221 2.41861C12.803 2.4884 12.5808 2.60903 12.4342 2.75563C12.2876 2.90224 12.167 3.12443 12.0972 3.64357C12.0241 4.18699 12.0223 4.91549 12.0223 6V11.1542C12.0224 11.1573 12.0224 11.1603 12.0225 11.1634Z" fill="#A6A6A6"/>
<path d="M12.0223 6C12.0223 5.53401 11.6445 5.15625 11.1785 5.15625C10.7125 5.15625 10.3348 5.53401 10.3348 6V7.35C10.3348 7.81599 10.7125 8.19375 11.1785 8.19375C11.6445 8.19375 12.0223 7.81599 12.0223 7.35L12.0223 6Z" fill="#A6A6A6"/>
<path d="M12.0223 11.625C12.0223 11.159 11.6446 12.4688 11.1786 12.4688C10.7126 12.4688 10.3348 10.934 10.3348 11.4V14.1C10.3348 14.566 10.7125 14.9438 11.1785 14.9438C11.6445 14.9438 12.0223 14.566 12.0223 14.1L12.0223 11.625Z" fill="#A6A6A6"/>
<path d="M12.0223 18.15C12.0223 17.684 11.6445 17.3063 11.1785 17.3063C10.7125 17.3063 10.3348 17.684 10.3348 18.15V19.5C10.3348 19.966 10.7126 20.3438 11.1786 20.3438C11.6446 20.3438 12.0223 19.966 12.0223 19.5V18.15Z" fill="#A6A6A6"/>
</svg>
