<svg width="14" height="14" viewBox="0 0 14 14" fill="none" xmlns="http://www.w3.org/2000/svg">
<path d="M9.66933 5.52996C9.82401 5.34434 9.79894 5.06846 9.61331 4.91378C9.42769 4.7591 9.15182 4.78417 8.99714 4.9698L6.97673 7.39429C6.76043 7.65384 6.62761 7.81159 6.51818 7.9104C6.46744 7.95622 6.43734 7.97448 6.42291 7.98147C6.41997 7.98288 6.41789 7.98374 6.41657 7.98423C6.41656 7.98423 6.41657 7.98423 6.41657 7.98423C6.41525 7.98374 6.41316 7.98288 6.41023 7.98147C6.3958 7.97448 6.3657 7.95622 6.31495 7.9104C6.20553 7.81159 6.0727 7.65384 5.85641 7.39429L5.00266 6.3698C4.84798 6.18418 4.57211 6.1591 4.38649 6.31378C4.20087 6.46846 4.17579 6.74434 4.33047 6.92996L5.20285 7.97681C5.39445 8.20679 5.56718 8.41411 5.72853 8.55981C5.90408 8.71833 6.1252 8.85951 6.41657 8.85951C6.70794 8.85951 6.92906 8.71833 7.1046 8.55981C7.26595 8.41411 7.43868 8.20679 7.63028 7.97682L9.66933 5.52996Z" fill="#AE9A7A"/>
<path fill-rule="evenodd" clip-rule="evenodd" d="M9.07911 1.6079C8.48214 -0.483885 5.51766 -0.483885 4.92069 1.6079C4.73005 2.27591 4.04375 2.67215 3.36992 2.50324C1.25989 1.97434 -0.222346 4.54165 1.29071 6.10454C1.77391 6.60364 1.77391 7.39611 1.29071 7.89522C-0.222346 9.4581 1.25989 12.0254 3.36992 11.4965C4.04375 11.3276 4.73005 11.7238 4.92069 12.3918C5.51766 14.4836 8.48214 14.4836 9.07911 12.3918C9.26975 11.7238 9.95605 11.3276 10.6299 11.4965C12.7399 12.0254 14.2221 9.4581 12.7091 7.89522C12.2259 7.39611 12.2259 6.60364 12.7091 6.10454C14.2221 4.54165 12.7399 1.97434 10.6299 2.50324C9.95605 2.67215 9.26975 2.27592 9.07911 1.6079ZM5.7621 1.84803C6.11749 0.60274 7.88231 0.60274 8.2377 1.84803C8.55793 2.97013 9.71075 3.63571 10.8426 3.35199C12.0988 3.03712 12.9812 4.5655 12.0804 5.49592C11.2688 6.3343 11.2688 7.66546 12.0804 8.50383C12.9812 9.43425 12.0988 10.9626 10.8426 10.6478C9.71075 10.364 8.55793 11.0296 8.2377 12.1517C7.88231 13.397 6.11749 13.397 5.7621 12.1517C5.44187 11.0296 4.28905 10.364 3.15717 10.6478C1.90102 10.9626 1.01861 9.43425 1.91937 8.50383C2.73102 7.66546 2.73102 6.3343 1.91937 5.49592C1.01861 4.5655 1.90102 3.03712 3.15717 3.35199C4.28905 3.63571 5.44187 2.97013 5.7621 1.84803Z" fill="#AE9A7A"/>
</svg>
