<svg width="13" height="11" viewBox="0 0 13 11" fill="none" xmlns="http://www.w3.org/2000/svg">
<path d="M7.125 8.15625C6.86612 8.15625 6.65625 8.36612 6.65625 8.625C6.65625 8.88388 6.86612 9.09375 7.125 9.09375H9.625C9.88388 9.09375 10.0938 8.88388 10.0938 8.625C10.0938 8.36612 9.88388 8.15625 9.625 8.15625H7.125Z" fill="#AE9A7A"/>
<path fill-rule="evenodd" clip-rule="evenodd" d="M9.21566 0.0753825C8.67545 0.0312449 8.0033 0.0312472 7.14597 0.03125H5.85403C4.9967 0.0312472 4.32455 0.0312449 3.78433 0.0753825C3.23425 0.120327 2.7798 0.213362 2.36847 0.422945C1.69226 0.76749 1.14249 1.31726 0.797945 1.99347C0.496212 2.58566 0.431623 3.28086 0.413241 4.24103C0.40625 4.60616 0.40625 5.02203 0.40625 5.49638V5.52097C0.406247 6.3783 0.406245 7.05045 0.450382 7.59066C0.495326 8.14075 0.588362 8.5952 0.797945 9.00653C1.14249 9.68274 1.69226 10.2325 2.36847 10.5771C2.7798 10.7866 3.23425 10.8797 3.78433 10.9246C4.32454 10.9688 4.99668 10.9688 5.85398 10.9688H7.14599C8.00329 10.9688 8.67546 10.9688 9.21566 10.9246C9.76575 10.8797 10.2202 10.7866 10.6315 10.5771C11.3077 10.2325 11.8575 9.68274 12.2021 9.00653C12.4116 8.5952 12.5047 8.14075 12.5496 7.59066C12.5938 7.05046 12.5938 6.37832 12.5938 5.52102V5.49638C12.5938 5.02203 12.5938 4.60616 12.5868 4.24103C12.5684 3.28086 12.5038 2.58566 12.2021 1.99347C11.8575 1.31726 11.3077 0.767491 10.6315 0.422945C10.2202 0.213362 9.76575 0.120326 9.21566 0.0753825ZM2.79409 1.25826C3.05123 1.12724 3.36857 1.04998 3.86068 1.00977C4.35826 0.969115 4.99218 0.96875 5.875 0.96875H7.125C8.00782 0.96875 8.64174 0.969115 9.13932 1.00977C9.63144 1.04998 9.94877 1.12724 10.2059 1.25826C10.7057 1.51293 11.1121 1.91928 11.3667 2.41909C11.5255 2.73077 11.6015 3.1201 11.634 3.78125H1.36604C1.39845 3.1201 1.47446 2.73077 1.63326 2.41909C1.88793 1.91928 2.29428 1.51293 2.79409 1.25826ZM1.34375 5.5C1.34375 5.21577 1.34376 4.95671 1.34519 4.71875H11.6548C11.6562 4.95671 11.6562 5.21577 11.6562 5.5C11.6562 6.38282 11.6559 7.01674 11.6152 7.51432C11.575 8.00643 11.4978 8.32377 11.3667 8.58091C11.1121 9.08072 10.7057 9.48707 10.2059 9.74174C9.94877 9.87276 9.63144 9.95002 9.13932 9.99023C8.64174 10.0309 8.00782 10.0312 7.125 10.0312H5.875C4.99218 10.0312 4.35826 10.0309 3.86068 9.99023C3.36857 9.95002 3.05123 9.87276 2.79409 9.74174C2.29428 9.48707 1.88793 9.08072 1.63326 8.58091C1.50224 8.32377 1.42498 8.00643 1.38477 7.51432C1.34411 7.01674 1.34375 6.38282 1.34375 5.5Z" fill="#AE9A7A"/>
</svg>
