<svg width="10" height="20" viewBox="0 0 10 20" fill="none" xmlns="http://www.w3.org/2000/svg">
<path d="M7.5 0C8.87891 0 10 1.11914 10 2.5V17.5C10 18.8789 8.87891 20 7.5 20H2.5C1.11914 20 0 18.8789 0 17.5V2.5C0 1.11914 1.11914 0 2.5 0H7.5ZM7.5 1.875H2.5C2.15469 1.875 1.875 2.15469 1.875 2.5V17.5C1.875 17.8438 2.15469 18.125 2.5 18.125H7.5C7.84375 18.125 8.125 17.8438 8.125 17.5V16.25H6.25C5.90625 16.25 5.625 15.9688 5.625 15.625C5.625 15.2812 5.90625 15 6.25 15H8.125V12.5H6.25C5.90625 12.5 5.625 12.2188 5.625 11.875C5.625 11.5312 5.90625 11.25 6.25 11.25H8.125V8.75H6.25C5.90625 8.75 5.625 8.46875 5.625 8.125C5.625 7.78125 5.90625 7.5 6.25 7.5H8.125V5H6.25C5.90625 5 5.625 4.71875 5.625 4.375C5.625 4.03125 5.90625 3.75 6.25 3.75H8.125V2.5C8.125 2.15469 7.84375 1.875 7.5 1.875Z" fill="#00858F"/>
</svg>
