<svg width="23" height="25" viewBox="0 0 23 25" fill="none" xmlns="http://www.w3.org/2000/svg">
<path d="M6.40314 10.7784C6.07363 11.1079 6.07363 11.6421 6.40314 11.9716L6.85314 12.4216C9.4194 14.9879 13.5801 14.9879 16.1464 12.4216L16.5964 11.9716C16.9259 11.6421 16.9259 11.1079 16.5964 10.7784C16.2669 10.4489 15.7326 10.4489 15.4031 10.7784L14.9531 11.2284C13.0459 13.1356 9.95363 13.1356 8.04638 11.2284L7.59638 10.7784C7.26688 10.4489 6.73264 10.4489 6.40314 10.7784Z" fill="#A6A6A6"/>
<path fill-rule="evenodd" clip-rule="evenodd" d="M11.4998 0.40625C8.76583 0.40625 6.51143 2.45932 6.1942 5.10779C5.75128 5.19263 5.34324 5.31526 4.95183 5.49469C3.82071 6.01322 2.86315 6.84698 2.19394 7.89601C1.7889 8.53094 1.54855 9.24121 1.35975 10.1077C1.17477 10.9566 1.02778 12.0149 0.840786 13.3613L0.830429 13.4359C0.589785 15.1685 0.401664 16.5229 0.344527 17.6139C0.286513 18.7216 0.356693 19.6447 0.689919 20.4921C1.23456 21.8773 2.24018 23.0322 3.53721 23.7622C4.33077 24.2088 5.23542 24.4053 6.34057 24.5003C7.42904 24.5938 8.79648 24.5938 10.5457 24.5938H12.4538C14.203 24.5938 15.5705 24.5938 16.6589 24.5003C17.7641 24.4053 18.6688 24.2088 19.4623 23.7622C20.7593 23.0322 21.765 21.8773 22.3096 20.4921C22.6428 19.6447 22.713 18.7216 22.655 17.6139C22.5979 16.5229 22.4097 15.1684 22.1691 13.4357L22.1587 13.3613C21.9717 12.0149 21.8247 10.9565 21.6398 10.1077C21.451 9.24121 21.2106 8.53094 20.8056 7.89601C20.1364 6.84698 19.1788 6.01322 18.0477 5.49469C17.6563 5.31526 17.2482 5.19263 16.8053 5.10779C16.4881 2.45932 14.2337 0.40625 11.4998 0.40625ZM10.5352 4.90625C9.52035 4.90624 8.66613 4.90624 7.93474 4.93475C8.30522 3.30789 9.7607 2.09375 11.4998 2.09375C13.2388 2.09375 14.6943 3.30789 15.0648 4.93475C14.3334 4.90624 13.4792 4.90624 12.4643 4.90625H10.5352ZM7.08795 6.68215C7.91854 6.59485 8.99391 6.59375 10.5862 6.59375H12.4134C14.0056 6.59375 15.081 6.59485 15.9116 6.68215C16.5322 6.74737 16.9704 6.85722 17.3445 7.02868C18.1805 7.41195 18.8883 8.0282 19.3829 8.80357C19.6382 9.20382 19.8236 9.69896 19.991 10.4669C20.1606 11.2452 20.2992 12.2395 20.4921 13.628C20.7395 15.4092 20.9169 16.692 20.9698 17.7021C21.0223 18.7039 20.9454 19.3501 20.7391 19.8746C20.3366 20.8984 19.5933 21.7521 18.6346 22.2916C18.1435 22.5681 17.514 22.7331 16.5145 22.819C15.5067 22.9055 14.2117 22.9062 12.4134 22.9062H10.5862C8.78784 22.9062 7.49278 22.9055 6.48498 22.819C5.48549 22.7331 4.85605 22.5681 4.36489 22.2916C3.40622 21.7521 2.66293 20.8984 2.26038 19.8746C2.05413 19.3501 1.97725 18.7039 2.02972 17.7021C2.08262 16.692 2.26006 15.4092 2.50745 13.628C2.70028 12.2395 2.83896 11.2452 3.00856 10.4669C3.17591 9.69896 3.36128 9.20382 3.61661 8.80357C4.11124 8.0282 4.819 7.41195 5.65505 7.02868C6.02908 6.85722 6.46731 6.74737 7.08795 6.68215Z" fill="#A6A6A6"/>
</svg>
