<svg width="20" height="20" viewBox="0 0 20 20" fill="none" xmlns="http://www.w3.org/2000/svg">
<path d="M12.5 2.5C12.5 3.88086 11.3789 5 10 5C8.62109 5 7.5 3.88086 7.5 2.5C7.5 1.11914 8.62109 0 10 0C11.3789 0 12.5 1.11914 12.5 2.5ZM11.25 6.25C12.6289 6.25 13.75 7.37109 13.75 8.75V10.625C13.75 11.3164 13.1914 11.875 12.5 11.875H12.4297L12 15.7617C11.9297 16.3945 11.3945 16.875 10.7578 16.875H9.24219C8.60547 16.875 8.07031 16.3945 8 15.7617L7.57031 11.875H7.5C6.80859 11.875 6.25 11.3164 6.25 10.625V8.75C6.25 7.37109 7.37109 6.25 8.75 6.25H11.25ZM2.47148 16.1992C2.34727 16.2617 2.24492 16.3203 2.16133 16.375C2.01953 16.4688 2.02031 16.6562 2.16172 16.75C2.50586 16.9766 3.06562 17.2109 3.84102 17.4258C5.37891 17.8164 7.55859 18.125 10 18.125C12.4414 18.125 14.6211 17.8164 16.1602 17.4258C16.9336 17.2109 17.4961 16.9766 17.8398 16.75C17.9805 16.6562 17.9805 16.4688 17.8398 16.375C17.7539 16.3203 17.6523 16.2617 17.5273 16.1992C16.9297 15.8633 16.0117 15.6172 14.832 15.3984C14.3203 15.3047 13.9844 14.8164 14.0781 14.3086C14.1719 13.8008 14.6602 13.4609 15.168 13.5547C16.4375 13.7852 17.5469 14.1094 18.3711 14.5234C18.7812 14.7305 19.1641 14.9805 19.4531 15.2891C19.75 15.6055 20 16.0352 20 16.5625C20 17.3984 19.3945 17.9727 18.8633 18.3203C18.2891 18.6953 17.5234 18.9961 16.6562 19.2344C14.9141 19.7148 12.5625 20 10 20C7.4375 20 5.08594 19.7148 3.34258 19.2344C2.47813 18.9961 1.71055 18.6953 1.1375 18.3203C0.603906 17.9727 0 17.3984 0 16.5625C0 16.0352 0.249062 15.6055 0.545313 15.2891C0.8375 14.9805 1.22031 14.7305 1.62969 14.5234C2.45117 14.1094 3.56406 13.7852 4.83203 13.5547C5.33984 13.4609 5.82812 13.8008 5.92188 14.3086C5.98047 14.8164 5.67969 15.3047 5.16797 15.3984C3.98828 15.6172 3.06914 15.8633 2.47148 16.1992Z" fill="#ED6B00"/>
</svg>
