<svg width="13" height="13" viewBox="0 0 13 13" fill="none" xmlns="http://www.w3.org/2000/svg">
<path d="M3.23287 0.994245C3.40807 0.854085 3.43647 0.598435 3.29631 0.423235C3.15615 0.248034 2.9005 0.219629 2.7253 0.359789L1.37114 1.44312C1.19594 1.58328 1.16753 1.83893 1.30769 2.01413C1.44785 2.18933 1.7035 2.21774 1.8787 2.07758L3.23287 0.994245Z" fill="#AE9A7A"/>
<path d="M10.2745 0.359789C10.0993 0.219629 9.84368 0.248034 9.70352 0.423235C9.56336 0.598435 9.59177 0.854085 9.76697 0.994245L11.1211 2.07758C11.2963 2.21774 11.552 2.18933 11.6921 2.01413C11.8323 1.83893 11.8039 1.58328 11.6287 1.44312L10.2745 0.359789Z" fill="#AE9A7A"/>
<path d="M6.90617 4.33327C6.90617 4.1089 6.72428 3.92702 6.49992 3.92702C6.27555 3.92702 6.09367 4.1089 6.09367 4.33327L6.09367 6.2291C6.09367 6.9022 6.63932 7.44785 7.31242 7.44785H8.12492C8.34928 7.44785 8.53117 7.26597 8.53117 7.0416C8.53117 6.81723 8.34928 6.63535 8.12492 6.63535H7.31242C7.08805 6.63535 6.90617 6.45347 6.90617 6.2291L6.90617 4.33327Z" fill="#AE9A7A"/>
<path fill-rule="evenodd" clip-rule="evenodd" d="M6.49992 0.677017C3.28401 0.677017 0.677002 3.28403 0.677002 6.49993C0.677002 9.71584 3.28401 12.3228 6.49992 12.3228C9.71583 12.3228 12.3228 9.71584 12.3228 6.49993C12.3228 3.28403 9.71583 0.677017 6.49992 0.677017ZM1.4895 6.49993C1.4895 3.73276 3.73274 1.48952 6.49992 1.48952C9.26709 1.48952 11.5103 3.73276 11.5103 6.49993C11.5103 9.26711 9.26709 11.5103 6.49992 11.5103C3.73274 11.5103 1.4895 9.26711 1.4895 6.49993Z" fill="#AE9A7A"/>
</svg>
