<?xml version="1.0" standalone="no"?>
<!DOCTYPE svg PUBLIC "-//W3C//DTD SVG 20010904//EN"
 "http://www.w3.org/TR/2001/REC-SVG-20010904/DTD/svg10.dtd">
<svg version="1.0" xmlns="http://www.w3.org/2000/svg"
 width="702.000000pt" height="702.000000pt" viewBox="0 0 702.000000 702.000000"
 preserveAspectRatio="xMidYMid meet">

<g transform="translate(0.000000,702.000000) scale(0.100000,-0.100000)"
fill="#000000" stroke="none">
<path d="M3305 6944 c-22 -2 -89 -9 -150 -14 -976 -95 -1890 -632 -2461 -1446
-335 -478 -534 -1011 -606 -1619 -16 -142 -16 -568 0 -710 96 -815 430 -1515
992 -2075 565 -564 1259 -896 2075 -992 142 -16 568 -16 710 0 816 96 1512
429 2075 992 563 563 896 1259 992 2075 7 61 12 219 12 355 0 248 -9 369 -45
580 -197 1162 -988 2151 -2080 2600 -294 121 -608 201 -944 240 -93 11 -499
21 -570 14z m1615 -2193 c-5 -11 -11 -60 -12 -110 -2 -71 -6 -90 -16 -86 -8 3
-21 5 -30 5 -14 0 -14 2 -3 9 10 7 14 34 15 105 l1 96 28 0 c24 0 26 -2 17
-19z m-281 -57 c19 -36 45 -81 57 -100 17 -25 20 -34 10 -34 -8 0 -22 -3 -31
-7 -14 -5 -16 -2 -11 13 9 31 -24 64 -57 57 -32 -6 -54 -47 -37 -68 11 -13 -6
-25 -37 -25 -15 0 -15 2 0 18 8 9 18 34 22 54 7 34 9 37 35 32 15 -4 31 -1 34
5 8 12 -19 68 -35 73 -12 4 -4 48 9 48 4 0 22 -30 41 -66z m584 -2 c26 -23 21
-57 -12 -84 l-30 -23 18 -52 c10 -29 15 -53 12 -53 -18 1 -33 22 -50 73 l-18
57 23 0 c43 0 58 79 18 94 -23 9 -32 0 -45 -47 -6 -23 -18 -57 -26 -75 -8 -18
-12 -40 -9 -48 6 -16 -17 -18 -49 -4 -16 7 -17 9 -3 9 24 1 74 145 63 180 -6
20 -5 20 42 4 26 -9 56 -23 66 -31z m-899 -16 c-6 -17 70 -172 88 -178 7 -3
-2 -10 -20 -16 -29 -10 -32 -9 -32 9 0 21 -26 79 -36 79 -7 0 -67 -31 -81 -42
-10 -8 -8 -19 7 -49 11 -21 26 -39 33 -39 6 -1 1 -7 -13 -15 -30 -17 -44 -19
-35 -4 10 15 -65 168 -84 172 -11 2 -6 8 16 20 38 20 49 22 36 5 -7 -9 -6 -24
3 -45 8 -18 16 -33 18 -33 7 0 96 41 96 44 0 19 -25 66 -38 71 -14 6 -12 10
13 21 17 7 31 13 32 14 1 0 0 -6 -3 -14z m253 -18 c-3 -7 -5 -2 -5 12 0 14 2
19 5 13 2 -7 2 -19 0 -25z m984 -248 c28 -16 25 -58 -6 -72 -19 -8 -28 -8 -40
2 -20 17 -19 57 3 69 21 13 20 13 43 1z m363 -301 c13 -27 22 -59 19 -69 -6
-23 -35 -34 -63 -25 -16 5 -20 2 -20 -17 0 -13 -5 -29 -12 -36 -19 -19 -63
-14 -84 9 -19 21 -18 21 7 9 40 -18 69 1 69 45 0 18 -4 37 -10 40 -15 9 -70
-24 -79 -47 -7 -20 -8 -19 -24 6 -21 31 -21 36 -2 36 21 0 165 79 165 91 0 21
12 6 34 -42z m-3514 -364 c160 -392 243 -582 260 -599 10 -10 36 -22 57 -26
24 -5 -13 -8 -102 -8 -77 0 -129 3 -115 7 15 4 26 15 28 28 2 11 -19 79 -47
149 -28 71 -79 202 -114 292 -47 123 -66 160 -74 150 -6 -7 -51 -114 -100
-238 -151 -377 -150 -375 -96 -383 15 -2 -21 -4 -82 -5 -83 0 -102 2 -78 9 42
12 61 41 121 184 75 182 216 504 241 554 29 56 33 52 101 -114z m1001 138 c5
-5 7 -35 3 -67 l-7 -57 -17 38 c-19 43 -51 62 -121 70 -129 15 -212 -90 -146
-188 12 -19 73 -72 134 -119 150 -114 183 -160 183 -255 0 -76 -42 -145 -111
-180 -48 -25 -148 -36 -219 -24 -100 17 -100 18 -100 105 0 48 4 73 10 69 6
-3 10 -15 10 -27 0 -30 29 -73 62 -93 48 -28 136 -31 192 -7 38 17 50 30 67
67 37 83 5 144 -126 243 -143 107 -195 176 -195 257 0 82 51 147 138 176 34
11 231 4 243 -8z m807 -133 c133 -330 244 -587 261 -604 10 -10 34 -22 52 -26
22 -5 -15 -8 -106 -8 -77 0 -127 3 -110 7 16 3 31 13 33 22 2 14 -53 162 -212
572 -6 15 -15 26 -20 24 -12 -4 -166 -380 -222 -545 -17 -48 -9 -68 29 -75 12
-2 -30 -4 -93 -5 -81 0 -105 2 -80 8 46 11 59 30 110 152 94 224 252 584 267
607 21 33 31 19 91 -129z m-3018 128 c0 -4 -11 -8 -25 -8 -48 0 -49 4 97 -370
16 -41 44 -114 61 -162 18 -49 37 -88 42 -88 17 0 235 550 235 593 0 16 -8 26
-27 33 -22 9 -7 11 74 10 56 0 101 -2 99 -4 -3 -2 -19 -11 -38 -20 -31 -16
-43 -40 -168 -332 -178 -412 -187 -433 -202 -428 -7 3 -31 49 -54 104 -23 54
-78 189 -124 299 -142 345 -152 365 -189 365 -9 0 -22 4 -29 9 -7 4 44 8 117
8 72 0 131 -4 131 -9z m3859 -4 c-28 -12 -38 -23 -43 -46 -8 -42 -6 -519 3
-592 10 -80 21 -86 145 -86 117 0 147 11 161 58 14 50 28 38 21 -18 -12 -87
11 -80 -260 -80 -211 1 -237 2 -210 14 25 11 32 22 37 52 10 61 8 657 -3 674
-5 8 -26 20 -47 26 -34 11 -22 12 97 12 130 1 134 0 99 -14z m989 -69 c16 -60
15 -82 -3 -89 -17 -6 -20 5 -4 21 10 10 3 59 -11 68 -4 2 -24 0 -44 -6 -32 -9
-36 -13 -30 -32 3 -12 12 -27 20 -33 13 -10 12 -13 -2 -18 -26 -10 -31 -7 -27
17 6 37 -10 51 -52 43 -27 -5 -39 -14 -43 -29 -6 -21 -6 -21 -13 3 -13 46 -11
59 11 53 23 -6 158 25 166 38 11 18 20 8 32 -36z m-167 -133 c-14 -4 -31 15
-31 35 0 7 10 2 23 -10 16 -16 18 -23 8 -25z m58 -167 c35 -15 39 -20 30 -37
-18 -33 -5 -48 32 -38 18 5 36 15 40 21 4 8 14 7 33 -3 26 -13 24 -14 -74 -46
-55 -18 -102 -37 -105 -43 -12 -19 -25 -8 -25 20 0 24 4 28 19 24 34 -9 61 14
61 52 0 28 -4 36 -24 41 -14 3 -30 3 -35 -1 -7 -4 -11 6 -11 27 1 25 3 29 10
17 5 -8 27 -24 49 -34z m81 -35 c8 -5 11 -10 5 -10 -5 0 -17 5 -25 10 -8 5
-10 10 -5 10 6 0 17 -5 25 -10z m-3678 -267 c20 -18 24 -63 6 -81 -21 -21 -66
-14 -83 12 -35 54 29 112 77 69z m1812 1 c19 -18 21 -65 4 -82 -17 -17 -64
-15 -82 4 -22 21 -20 50 4 74 24 24 53 26 74 4z m1800 -15 c37 -11 76 -17 86
-14 18 6 18 3 9 -25 -8 -23 -14 -28 -24 -20 -24 20 -128 50 -151 44 -49 -12
-58 -71 -18 -103 38 -30 123 -54 141 -40 14 13 17 2 7 -25 -4 -11 -10 -13 -18
-8 -6 5 -38 19 -71 31 -69 26 -84 36 -96 69 -12 31 13 89 43 102 13 5 24 9 24
9 1 1 32 -8 68 -20z m-165 -374 c61 -42 72 -46 87 -35 11 10 14 23 10 44 -6
29 -6 29 14 11 20 -18 20 -19 2 -39 -11 -12 -35 -45 -54 -73 -32 -49 -36 -52
-54 -38 -19 14 -19 14 2 15 22 0 44 18 44 36 0 16 -139 106 -156 100 -19 -7
-18 4 2 33 14 20 18 21 25 8 5 -8 40 -36 78 -62z m-233 -232 c13 -8 49 -23 80
-32 l56 -18 -26 -17 c-14 -9 -26 -12 -26 -6 0 10 -17 19 -67 34 -19 6 -23 3
-24 -16 -1 -23 -1 -23 -8 2 -8 35 -52 90 -70 90 -12 1 -10 6 8 21 l24 20 15
-32 c9 -17 26 -38 38 -46z m-1361 -9 c14 -10 16 -17 8 -22 -10 -7 -17 -33 -14
-58 0 -6 15 -17 31 -24 27 -11 33 -10 51 6 11 10 17 24 15 31 -7 17 6 17 30
-2 15 -11 16 -15 4 -15 -8 0 -51 -30 -95 -65 -44 -36 -83 -65 -87 -65 -11 0
-10 13 11 114 11 49 17 95 14 103 -7 17 7 16 32 -3z m1385 -114 c15 0 3 -17
-18 -29 -15 -8 -17 -4 -13 32 3 36 5 39 12 20 5 -13 13 -23 19 -23z m-1020
-40 c3 0 -3 -5 -12 -11 -20 -11 -62 -142 -56 -174 4 -21 3 -21 -28 -12 -26 8
-31 13 -20 21 12 10 36 67 36 87 0 4 -9 11 -21 14 -43 14 -80 -60 -47 -93 9
-9 9 -12 0 -12 -16 0 -52 37 -52 54 0 7 10 26 22 41 19 24 26 27 64 21 43 -5
43 -5 50 29 3 18 3 38 0 44 -4 6 5 7 26 0 18 -5 35 -9 38 -9z m614 -26 c24
-23 20 -53 -9 -66 -30 -13 -55 3 -55 36 0 42 36 59 64 30z m-457 -12 c-26 -29
-20 -47 28 -86 46 -38 57 -70 33 -94 -19 -19 -25 -14 -20 17 3 24 -2 32 -40
58 -51 34 -61 70 -29 102 26 26 51 28 28 3z m67 5 c10 -7 17 -20 15 -28 -3
-10 -11 -7 -31 14 -27 28 -16 38 16 14z m-90 -183 c9 -24 7 -28 -9 -14 -17 14
-20 30 -6 30 5 0 12 -7 15 -16z"/>
<path d="M5860 4092 c-36 -29 -2 -74 40 -52 21 11 31 35 24 55 -8 20 -37 19
-64 -3z"/>
<path d="M4176 2454 c-9 -23 -7 -54 2 -54 5 0 19 11 31 24 23 24 23 24 3 35
-27 14 -29 14 -36 -5z"/>
</g>
</svg>
