<svg width="20" height="20" viewBox="0 0 20 20" fill="none" xmlns="http://www.w3.org/2000/svg">
<path d="M10 10.3125C10.8641 10.3125 11.5625 9.61406 11.5625 8.75C11.5625 8.33984 11.3965 7.96875 11.1328 7.69063L12.4512 4.61914C12.5879 4.30176 12.4365 3.93555 12.1191 3.79883C11.8066 3.66211 11.4355 3.80859 11.2988 4.13086L9.99219 7.1875C9.13281 7.19922 8.4375 7.89062 8.4375 8.75C8.4375 9.61328 9.13672 10.3125 10 10.3125ZM17.1875 2.5H15.3035C14.043 0.973047 12.1367 0 10 0C7.86328 0 5.95703 0.973047 4.69531 2.5H2.8125C1.26172 2.5 0 3.76211 0 5.3125V17.1875C0 18.7383 1.26172 20 2.8125 20H17.1875C18.7383 20 20 18.7379 20 17.1875V5.3125C20 3.76211 18.7383 2.5 17.1875 2.5ZM10 1.875C12.757 1.875 15 4.11797 15 6.875C15 9.63203 12.757 11.875 10 11.875C7.24297 11.875 5 9.63203 5 6.875C5 4.11797 7.24219 1.875 10 1.875ZM18.125 17.1875C18.125 17.7039 17.7043 18.125 17.1875 18.125H2.8125C2.2957 18.125 1.875 17.7039 1.875 17.1875V5.3125C1.875 4.79609 2.2957 4.375 2.8125 4.375H3.60078C3.29766 5.15234 3.125 5.99219 3.125 6.875C3.125 10.6719 6.20312 13.75 10 13.75C13.7969 13.75 16.875 10.6719 16.875 6.875C16.875 5.9918 16.7026 5.15078 16.3992 4.375H17.1875C17.7043 4.375 18.125 4.79609 18.125 5.3125V17.1875Z" fill="#00858F"/>
</svg>
